<?xml version="1.0" encoding="utf-8"?>
<!-- Generator: Adobe Illustrator 16.0.0, SVG Export Plug-In . SVG Version: 6.00 Build 0)  -->
<!DOCTYPE svg PUBLIC "-//W3C//DTD SVG 1.1//EN" "http://www.w3.org/Graphics/SVG/1.1/DTD/svg11.dtd">
<svg version="1.1" id="Ebene_1" xmlns="http://www.w3.org/2000/svg" xmlns:xlink="http://www.w3.org/1999/xlink" x="0px" y="0px"
	 width="80px" height="80px" viewBox="0 0 80 80" enable-background="new 0 0 80 80" xml:space="preserve">
<path fill-rule="evenodd" clip-rule="evenodd" fill="#1C1C1C" d="M37.279,52.502c-7.667-4.668-10.575-10.883-8.695-18.044
	c1.651-6.293,7.539-11.008,14.029-11.235c6.841-0.239,12.917,3.979,15.067,10.459c2.373,7.153-0.228,13.186-8.147,18.785
	c1.654,0.27,3.283,0.404,4.843,0.809c7.079,1.834,12.365,8.437,12.607,15.761c0.104,3.162-0.007,6.331,0.05,9.495
	c0.034,1.945-0.885,2.659-2.759,2.655c-12.742-0.031-25.483-0.031-38.225,0c-1.875,0.004-2.844-0.711-2.744-2.656
	c0.032-0.632-0.044-1.271,0.012-1.898c0.514-5.705-0.293-10.565-4.826-15.086c-4.86-4.848-6.522-11.649-6.567-18.59
	c-0.063-9.813-0.027-19.626-0.013-29.44c0.005-3.896,2.312-6.473,5.714-6.458c3.323,0.014,5.667,2.679,5.677,6.549
	c0.022,8.626-0.06,17.253,0.032,25.878C23.413,47.023,29.692,52.956,37.279,52.502z"/>
</svg>
