<?xml version="1.0" encoding="utf-8"?>
<!-- Generator: Adobe Illustrator 16.0.0, SVG Export Plug-In . SVG Version: 6.00 Build 0)  -->
<!DOCTYPE svg PUBLIC "-//W3C//DTD SVG 1.1//EN" "http://www.w3.org/Graphics/SVG/1.1/DTD/svg11.dtd">
<svg version="1.1" id="Ebene_1" xmlns="http://www.w3.org/2000/svg" xmlns:xlink="http://www.w3.org/1999/xlink" x="0px" y="0px"
	 width="358px" height="208.292px" viewBox="-25.698 0 358 208.292" enable-background="new -25.698 0 358 208.292"
	 xml:space="preserve">
<g>
	<g>
		<g>
			<defs>
				<polygon id="SVGID_1_" points="33.973,3.969 53.476,4 61.503,25.631 47.346,39.832 60.195,74.291 85.363,89.766 93.268,111.1 
					80.721,129.337 95.335,168.527 119.66,182.123 127.41,203 -70.107,203 -70.107,4 				"/>
			</defs>
			<clipPath id="SVGID_2_">
				<use xlink:href="#SVGID_1_"  overflow="visible"/>
			</clipPath>
			<path clip-path="url(#SVGID_2_)" fill="#201F20" d="M94.991,110.996H13.232v71.23h121.536v21.055H-13.7V4.219h121.133V25.41
				h-94.2v64.395h81.759V110.996z"/>
		</g>
	</g>
	<g>
		<polygon display="none" fill="#201F20" points="188.784,150.072 189.548,150.072 198.257,127.511 195.701,127.511 230.617,41.79 
			236.534,24.956 237.145,26.764 246.346,2.278 230.446,2.278 158.68,201.058 169.867,201.058 180.602,173.248 		"/>
		<polygon fill="#201F20" points="255.697,8.705 243.088,44.563 271.2,127.511 211.779,127.511 203.845,150.072 278.856,150.072 
			296.356,201.341 323.837,201.341 		"/>
	</g>
	<path fill="#EE7F00" d="M167.294,203.281h-23.105L70.223,4.219h29.258l51.406,146.836l4.512,16.543L167.294,203.281z"/>
	<polygon fill="#EE7F00" points="153.268,167.598 156.219,167.598 160.731,151.055 212.137,4.219 241.259,4.219 167.294,203.281 
		160.457,196.391 	"/>
</g>
</svg>
