<?xml version="1.0" encoding="utf-8"?>
<!-- Generator: Adobe Illustrator 16.0.0, SVG Export Plug-In . SVG Version: 6.00 Build 0)  -->
<!DOCTYPE svg PUBLIC "-//W3C//DTD SVG 1.1//EN" "http://www.w3.org/Graphics/SVG/1.1/DTD/svg11.dtd">
<svg version="1.1" xmlns="http://www.w3.org/2000/svg" xmlns:xlink="http://www.w3.org/1999/xlink" x="0px" y="0px" width="200px"
	 height="124px" viewBox="0 0 200 124" enable-background="new 0 0 200 124" xml:space="preserve">
<g id="Ebene_2">
	<circle fill="#EE7F00" cx="100.542" cy="62.274" r="59.301"/>
	<g>
		<g>
			<g opacity="0.8">
				<path fill="#393738" d="M129.441,54.581c0,0-1.758-0.27-3.261,1.055c-1.503,1.322-1.635,1.572-2.058,2.137
					c-0.425,0.567,3.256,0.769,4.701-1.632C130.265,53.743,129.441,54.581,129.441,54.581"/>
				<path fill="#393738" d="M128.979,58.125c0,0,1.351,0.834,1.604,2.601c0.257,1.771,0.202,2.016,0.161,2.646
					c-0.038,0.627-2.656-1.364-2.248-3.829C128.905,57.079,128.979,58.125,128.979,58.125"/>
				<path fill="#393738" d="M126.202,61.713c0,0-0.964-0.823-2.372-0.582c-1.408,0.239-1.581,0.341-2.051,0.526
					s1.688,1.686,3.462,0.77C127.018,61.511,126.202,61.713,126.202,61.713"/>
				<path fill="#393738" d="M125.595,63.306c0,0-0.93,0.651-1.039,1.925c-0.105,1.273-0.058,1.447-0.003,1.895
					s1.841-1.086,1.445-2.827C125.604,62.556,125.595,63.306,125.595,63.306"/>
				<path fill="#393738" d="M122.549,64.765c0,0-0.476-0.884-1.582-1.11c-1.108-0.228-1.266-0.203-1.664-0.203
					c-0.4,0.003,0.761,1.729,2.332,1.564C123.207,64.852,122.549,64.765,122.549,64.765"/>
				<path fill="#393738" d="M121.837,65.6c0,0-0.879,0.154-1.381,1.023c-0.502,0.871-0.524,1.011-0.635,1.348
					c-0.109,0.336,1.67-0.159,1.97-1.531C122.092,65.07,121.837,65.6,121.837,65.6"/>
				<path fill="#393738" d="M128.824,44.705c0.623,0.236,0.74,0.505,0.89,0.918c0.563,1.542,1.731,5.426,0.681,8.86
					c-1.302,4.267-3.465,7.88-5.124,9.422c-1.66,1.541-6.192,2.814-7.26,2.486c-0.179-0.055,1.809-0.976,4.266-1.688
					c2.298-0.663,6.964-6.281,7.527-12.561c0.231-2.597-0.276-4.395-1.246-6.55C128.294,45.001,128.31,44.509,128.824,44.705"/>
				<path fill="#393738" d="M130.543,52.674c0,0,2.047,0.918,2.726,3.35c0.684,2.428,0.652,2.784,0.713,3.672
					c0.058,0.89-3.972-1.421-3.854-4.947C130.246,51.222,130.543,52.674,130.543,52.674"/>
			</g>
			<g>
				<g>
					<g>
						<path fill="#98B842" d="M129.441,53.249c0,0-1.758-0.27-3.261,1.055c-1.503,1.322-1.635,1.572-2.058,2.137
							c-0.425,0.567,3.256,0.769,4.701-1.632C130.265,52.411,129.441,53.249,129.441,53.249"/>
						<path fill="#98B842" d="M128.979,56.792c0,0,1.351,0.834,1.604,2.601c0.257,1.771,0.202,2.016,0.161,2.646
							c-0.038,0.627-2.656-1.364-2.248-3.829C128.905,55.747,128.979,56.792,128.979,56.792"/>
						<path fill="#98B842" d="M126.202,60.38c0,0-0.964-0.823-2.372-0.582c-1.408,0.239-1.581,0.341-2.051,0.526
							s1.688,1.686,3.462,0.77C127.018,60.179,126.202,60.38,126.202,60.38"/>
						<path fill="#98B842" d="M125.595,61.974c0,0-0.93,0.651-1.039,1.925c-0.105,1.273-0.058,1.447-0.003,1.895
							s1.841-1.086,1.445-2.827C125.604,61.223,125.595,61.974,125.595,61.974"/>
						<path fill="#98B842" d="M122.549,63.433c0,0-0.476-0.884-1.582-1.111c-1.108-0.228-1.266-0.203-1.664-0.203
							c-0.4,0.003,0.761,1.729,2.332,1.565C123.207,63.52,122.549,63.433,122.549,63.433"/>
						<path fill="#98B842" d="M121.837,64.268c0,0-0.879,0.154-1.381,1.023c-0.502,0.871-0.524,1.011-0.635,1.348
							c-0.109,0.336,1.67-0.159,1.97-1.531C122.092,63.738,121.837,64.268,121.837,64.268"/>
						<path fill="#98B842" d="M128.824,43.372c0.623,0.236,0.74,0.505,0.89,0.918c0.563,1.542,1.731,5.426,0.681,8.86
							c-1.302,4.267-3.465,7.88-5.124,9.422c-1.66,1.542-6.192,2.815-7.26,2.487c-0.179-0.055,1.809-0.976,4.266-1.688
							c2.298-0.663,6.964-6.281,7.527-12.561c0.231-2.597-0.276-4.395-1.246-6.55C128.294,43.669,128.31,43.176,128.824,43.372"/>
					</g>
					<path fill="#98B842" d="M130.543,51.342c0,0,2.047,0.918,2.726,3.35c0.684,2.428,0.652,2.784,0.713,3.672
						c0.058,0.89-3.972-1.421-3.854-4.947C130.246,49.89,130.543,51.342,130.543,51.342"/>
				</g>
			</g>
		</g>
		<g>
			<g opacity="0.8">
				<path fill="#393738" d="M86.92,82.788c-1.073,0.291-4.256,1.643-2.953,7.295c0.003,0.016,0.008,0.03,0.013,0.044
					c0.116,0.37,1.673,5.468-1.731,3.72c-0.193-0.1-0.431-0.058-0.582,0.099c-0.637,0.658-2.355,2.122-3.707,0.464
					c-0.167-0.203-0.469-0.234-0.68-0.079c-0.728,0.531-2.294,1.395-3.392-0.012c-0.151-0.197-0.421-0.258-0.638-0.137
					c-0.626,0.352-1.856,0.859-2.5-0.104c-0.164-0.247-0.503-0.289-0.732-0.102c-0.244,0.197-1.397,0.768-2.331-0.255
					c-0.756-0.83-2.86,0.952-1.422-2.4c1.437-3.354,11.412-10.044,13.054-10.318c1.378-0.229,6.083,0.554,7.56,0.812
					c0.256,0.044,0.433,0.275,0.412,0.532C87.271,82.555,87.123,82.731,86.92,82.788"/>
				<path fill="#393738" d="M115.595,48.969c0,0,1.438-8.078,9.036-16.36c0,0,3.97-6.433-6.16,2.808c0,0,4.448-6.709-2.259-0.549
					c-6.707,6.162-6.981,12.252-6.981,12.252s7.939-16.769-0.274-6.296c0,0-4.244,5.887-4.517,10.541c0,0-0.07-3.696,1.368-6.775
					c1.438-3.08-2.396,0-4.928,10.541c-2.532,10.541,3.148,4.859,3.148,4.859s7.665-2.464,8.557-5.065
					C113.473,52.322,115.595,48.969,115.595,48.969"/>
				<path fill="#393738" d="M123.031,51.905c0,0-2.546,2.301-4.689,1.248c-2.141-1.052-0.085-1.611-0.085-1.611
					s4.02-0.015,4.288,0.1C122.814,51.757,123.031,51.905,123.031,51.905"/>
				<path fill="#393738" d="M118.518,49.9c0,0,2.638,0.085,4.925,1.755c0.103,0.074,0.083,0.233-0.035,0.282
					c-0.7,0.291-2.712,0.973-4.593,0.197C116.489,51.173,118.518,49.9,118.518,49.9"/>
				<path fill="#393738" d="M120.044,51.021c0,0-1.369-4.244-4.996-3.97s-3.627,0.411-5.543,3.765
					c-1.918,3.354-6.436,8.214-11.638,1.986c-5.202-6.23-10.541-10.952-18.823-12.665c-8.282-1.709-19.027-4.996-23.27-8.829
					c0,0-2.192,0.206,3.762,5.819c0,0,3.082,2.601-0.888,0.341c-3.971-2.259,0.136,4.106,10.747,9.172c0,0-17.729-8.076-2.807,2.328
					c0,0,5.066,2.601,7.597,3.01c2.532,0.412-21.013-5.407-6.982,1.096c0,0,7.872,3.627,11.636,4.106
					c3.764,0.479-22.45-3.695-7.803,2.054c0,0,4.997,1.711,8.763,1.986c0,0-18.55,1.984-1.507,3.217c0,0,3.97,0.273,5.886,0
					c1.918-0.275-21.56,2.602-3.764,3.422c0,0,3.832,0.205,5.682-0.479c0,0-17.797,3.561-3.286,3.49c0,0,1.643,0.137,2.669-0.068
					c1.026-0.204-9.994,2.533-1.026,2.258c0,0-20.672,14.581-18.686,19.782c0,0-0.137,2.26,3.149-1.712
					c3.283-3.97,7.664-8.282,15.262-7.665c7.599,0.615,23.548,3.217,27.858-18.275c0,0,1.85-7.53,6.229-10.062
					C118.266,55.129,120.182,54.238,120.044,51.021"/>
				<path fill="#393738" d="M119.081,50.565c0,0.323,0.335,0.583,0.746,0.583c0.412,0,0.747-0.261,0.747-0.583
					s-0.335-0.583-0.747-0.583C119.416,49.982,119.081,50.243,119.081,50.565"/>
				<path fill="#393738" d="M114.082,49.256c0,0.535,0.434,0.968,0.969,0.968s0.969-0.434,0.969-0.968
					c0-0.535-0.434-0.969-0.969-0.969S114.082,48.721,114.082,49.256"/>
			</g>
			<g>
				<g>
					<path fill="#D1D1D1" d="M94.92,77.788c-1.073,0.291-4.256,1.643-2.953,7.295c0.003,0.016,0.008,0.03,0.013,0.044
						c0.116,0.37,1.673,5.468-1.731,3.72c-0.193-0.1-0.431-0.058-0.582,0.099c-0.637,0.658-2.355,2.122-3.707,0.464
						c-0.167-0.203-0.469-0.234-0.68-0.079c-0.728,0.531-2.294,1.395-3.392-0.012c-0.151-0.197-0.421-0.258-0.638-0.137
						c-0.626,0.352-1.856,0.859-2.5-0.104c-0.164-0.247-0.503-0.289-0.732-0.102c-0.244,0.197-1.397,0.768-2.331-0.255
						c-0.756-0.83-2.86,0.952-1.422-2.4c1.437-3.354,11.412-10.044,13.054-10.318c1.378-0.229,6.083,0.554,7.56,0.812
						c0.256,0.044,0.433,0.275,0.412,0.532C95.271,77.555,95.123,77.731,94.92,77.788"/>
					<path fill="#D1D1D1" d="M123.595,43.969c0,0,1.438-8.078,9.036-16.36c0,0,3.97-6.433-6.16,2.808c0,0,4.448-6.709-2.259-0.549
						c-6.707,6.162-6.981,12.252-6.981,12.252s7.939-16.769-0.274-6.296c0,0-4.244,5.887-4.517,10.541c0,0-0.07-3.696,1.368-6.775
						c1.438-3.08-2.396,0-4.928,10.541c-2.532,10.541,3.148,4.859,3.148,4.859s7.665-2.464,8.557-5.065
						C121.473,47.322,123.595,43.969,123.595,43.969"/>
					<path fill="#D5D5D5" d="M131.031,46.905c0,0-2.546,2.301-4.689,1.248c-2.141-1.052-0.085-1.611-0.085-1.611
						s4.02-0.015,4.288,0.1C130.814,46.757,131.031,46.905,131.031,46.905"/>
					<path fill="#8E8E8E" d="M126.518,44.9c0,0,2.638,0.085,4.925,1.755c0.103,0.074,0.083,0.233-0.035,0.282
						c-0.7,0.291-2.712,0.973-4.593,0.197C124.489,46.173,126.518,44.9,126.518,44.9"/>
					<path fill="#FFFFFF" d="M128.044,46.021c0,0-1.369-4.244-4.996-3.97s-3.627,0.411-5.543,3.765
						c-1.918,3.354-6.436,8.214-11.638,1.986c-5.202-6.23-10.541-10.952-18.823-12.665c-8.282-1.709-19.027-4.996-23.27-8.829
						c0,0-2.192,0.206,3.762,5.819c0,0,3.082,2.601-0.888,0.341c-3.971-2.259,0.136,4.106,10.747,9.172
						c0,0-17.729-8.076-2.807,2.328c0,0,5.066,2.601,7.597,3.01c2.532,0.412-21.013-5.407-6.982,1.096c0,0,7.872,3.627,11.636,4.106
						c3.764,0.479-22.45-3.695-7.803,2.054c0,0,4.997,1.711,8.763,1.986c0,0-18.55,1.984-1.507,3.216c0,0,3.97,0.274,5.886,0
						c1.918-0.274-21.56,2.603-3.764,3.423c0,0,3.832,0.205,5.682-0.479c0,0-17.797,3.561-3.286,3.49c0,0,1.643,0.137,2.669-0.068
						c1.026-0.204-9.994,2.533-1.026,2.258c0,0-20.672,14.581-18.686,19.782c0,0-0.137,2.26,3.149-1.712
						c3.283-3.97,7.664-8.282,15.262-7.665c7.599,0.615,23.548,3.217,27.858-18.275c0,0,1.85-7.53,6.229-10.062
						C126.266,50.129,128.182,49.238,128.044,46.021"/>
					<path fill="#FFFFFF" d="M127.081,45.565c0,0.323,0.335,0.583,0.746,0.583c0.412,0,0.747-0.261,0.747-0.583
						s-0.335-0.583-0.747-0.583C127.416,44.982,127.081,45.243,127.081,45.565"/>
					<path fill="#7A786E" d="M122.082,44.256c0,0.535,0.434,0.968,0.969,0.968s0.969-0.434,0.969-0.968
						c0-0.535-0.434-0.969-0.969-0.969S122.082,43.721,122.082,44.256"/>
				</g>
			</g>
		</g>
	</g>
</g>
<g id="Ebene_1">
	<path display="none" fill="#21456E" d="M96.519,79.468c-1.108,0.3-4.395,1.697-3.048,7.534c0.003,0.016,0.007,0.031,0.014,0.045
		c0.118,0.382,1.727,5.646-1.791,3.842c-0.2-0.104-0.443-0.059-0.6,0.103c-0.658,0.678-2.434,2.192-3.83,0.479
		c-0.173-0.211-0.484-0.242-0.703-0.082c-0.75,0.548-2.369,1.44-3.501-0.013c-0.157-0.202-0.437-0.265-0.66-0.14
		c-0.647,0.362-1.919,0.888-2.582-0.108c-0.17-0.255-0.519-0.298-0.757-0.105c-0.252,0.203-1.443,0.792-2.406-0.264
		c-0.782-0.856-2.953,0.985-1.469-2.479c1.484-3.464,11.786-10.371,13.482-10.654c1.423-0.237,6.281,0.571,7.807,0.837
		c0.263,0.045,0.446,0.283,0.424,0.55C96.882,79.229,96.729,79.411,96.519,79.468"/>
	<g display="none">
		<g display="inline" opacity="0.4">
			<path fill="#393738" d="M134.135,52.541c0,0,1.483-8.341,9.33-16.894c0,0,4.1-6.645-6.361,2.898c0,0,4.594-6.928-2.332-0.564
				c-6.928,6.362-7.211,12.653-7.211,12.653s8.2-17.319-0.283-6.504c0,0-4.383,6.08-4.665,10.887c0,0-0.071-3.818,1.413-6.998
				c1.484-3.182-2.474,0-5.089,10.886s3.252,5.019,3.252,5.019s7.917-2.544,8.836-5.23
				C131.942,56.005,134.135,52.541,134.135,52.541"/>
		</g>
		<g display="inline">
			<path fill="#D1D1D1" d="M126.135,44.541c0,0,1.483-8.341,9.33-16.894c0,0,4.1-6.645-6.361,2.898c0,0,4.594-6.928-2.332-0.564
				c-6.928,6.362-7.211,12.653-7.211,12.653s8.2-17.319-0.283-6.504c0,0-4.383,6.08-4.665,10.887c0,0-0.071-3.818,1.413-6.998
				c1.484-3.182-2.474,0-5.089,10.886s3.252,5.019,3.252,5.019s7.917-2.545,8.836-5.231
				C123.942,48.005,126.135,44.541,126.135,44.541"/>
		</g>
	</g>
	<path display="none" fill="#D5D5D5" d="M133.813,47.575c0,0-2.63,2.376-4.844,1.289c-2.21-1.089-0.088-1.666-0.088-1.666
		s4.152-0.015,4.43,0.104C133.59,47.421,133.813,47.575,133.813,47.575"/>
	<g display="none">
		<path display="inline" fill="#568956" d="M132.171,54.126c0,0-1.815-0.28-3.366,1.088c-1.553,1.367-1.69,1.624-2.127,2.209
			s3.364,0.792,4.855-1.687C133.022,53.259,132.171,54.126,132.171,54.126"/>
		<path display="inline" fill="#568956" d="M131.693,57.787c0,0,1.396,0.86,1.658,2.687c0.264,1.826,0.208,2.081,0.166,2.731
			c-0.04,0.649-2.742-1.409-2.321-3.954S131.693,57.787,131.693,57.787"/>
		<path display="inline" fill="#568956" d="M128.826,61.491c0,0-0.996-0.85-2.449-0.602c-1.454,0.248-1.635,0.353-2.119,0.543
			c-0.484,0.191,1.746,1.742,3.577,0.797C129.668,61.284,128.826,61.491,128.826,61.491"/>
		<path display="inline" fill="#568956" d="M128.199,63.137c0,0-0.961,0.672-1.072,1.987c-0.112,1.315-0.062,1.495-0.004,1.957
			c0.056,0.462,1.899-1.12,1.492-2.92S128.199,63.137,128.199,63.137"/>
		<path display="inline" fill="#568956" d="M125.053,64.644c0,0-0.491-0.914-1.634-1.148c-1.144-0.236-1.307-0.209-1.719-0.208
			c-0.412,0.001,0.785,1.785,2.409,1.616C125.731,64.732,125.053,64.644,125.053,64.644"/>
		<path display="inline" fill="#568956" d="M124.316,65.506c0,0-0.907,0.159-1.425,1.057c-0.517,0.899-0.541,1.044-0.654,1.392
			c-0.114,0.349,1.724-0.165,2.035-1.58C124.581,64.958,124.316,65.506,124.316,65.506"/>
		<path display="inline" fill="#568956" d="M131.536,43.926c0.642,0.244,0.762,0.521,0.917,0.948
			c0.581,1.591,1.788,5.603,0.704,9.149c-1.346,4.406-3.579,8.139-5.293,9.731s-6.396,2.907-7.497,2.57
			c-0.186-0.058,1.867-1.01,4.405-1.744c2.371-0.686,7.192-6.488,7.772-12.974c0.24-2.683-0.285-4.54-1.286-6.763
			C130.985,44.232,131.003,43.724,131.536,43.926"/>
		<path display="inline" fill="#568956" d="M133.31,52.157c0,0,2.112,0.949,2.814,3.458c0.706,2.51,0.675,2.877,0.735,3.794
			c0.062,0.919-4.101-1.468-3.978-5.109C133.004,50.657,133.31,52.157,133.31,52.157"/>
	</g>
	<path display="none" fill="#8E8E8E" d="M129.152,45.504c0,0,2.723,0.088,5.086,1.812c0.106,0.077,0.085,0.242-0.037,0.292
		c-0.722,0.299-2.801,1.004-4.743,0.202C127.058,46.818,129.152,45.504,129.152,45.504"/>
	<g display="none">
		<path display="inline" fill="#FFFFFF" d="M130.729,46.663c0,0-1.413-4.384-5.16-4.101c-3.746,0.283-3.746,0.424-5.725,3.888
			c-1.98,3.464-6.646,8.483-12.019,2.051c-5.371-6.434-10.886-11.311-19.438-13.077c-8.554-1.769-19.652-5.162-24.035-9.12
			c0,0-2.262,0.212,3.888,6.009c0,0,3.18,2.686-0.919,0.353s0.142,4.241,11.099,9.472c0,0-18.309-8.341-2.899,2.403
			c0,0,5.231,2.687,7.847,3.111c2.615,0.424-21.701-5.584-7.21,1.132c0,0,8.13,3.747,12.018,4.241s-23.187-3.818-8.059,2.12
			c0,0,5.16,1.769,9.047,2.051c0,0-19.156,2.05-1.555,3.322c0,0,4.101,0.282,6.081,0c1.978-0.282-22.269,2.687-3.888,3.535
			c0,0,3.958,0.211,5.866-0.495c0,0-18.379,3.676-3.393,3.605c0,0,1.697,0.141,2.756-0.07c1.061-0.213-10.321,2.615-1.06,2.332
			c0,0-21.348,15.057-19.298,20.429c0,0-0.142,2.333,3.252-1.767c3.392-4.1,7.917-8.553,15.764-7.917
			c7.846,0.636,24.316,3.322,28.771-18.874c0,0,1.908-7.777,6.432-10.392C128.891,50.904,130.871,49.985,130.729,46.663"/>
	</g>
	<path display="none" fill="#FFFFFF" d="M129.734,46.19c0,0.332,0.346,0.602,0.771,0.602c0.426,0,0.771-0.27,0.771-0.602
		c0-0.333-0.346-0.603-0.771-0.603C130.08,45.588,129.734,45.857,129.734,46.19"/>
	<path display="none" fill="#7A786E" d="M124.572,44.839c0,0.552,0.447,1,1,1s1-0.448,1-1c0-0.554-0.447-1-1-1
		S124.572,44.285,124.572,44.839"/>
	<g>
		<rect x="168.512" y="83.125" fill="#D1D1D1" width="29.738" height="25.974"/>
		<rect x="3.005" y="83.125" fill="#D1D1D1" width="29.545" height="25.974"/>
		<polygon fill="#8E8E8E" points="184.095,99.958 168.512,109.098 168.512,99.958 		"/>
		<polygon fill="#8E8E8E" points="16.965,99.958 32.55,109.098 32.55,99.958 		"/>
		<rect x="16.71" y="73.985" fill="#FFFFFF" width="167.384" height="25.974"/>
	</g>
	<g>
		<path fill="#393738" d="M33.097,80.413v10.963H31.46V80.413h-2.936v-1.629h7.508v1.629H33.097z"/>
		<path fill="#393738" d="M38.009,78.784h1.637v5.367c0.457-0.876,1.118-1.314,1.983-1.314s1.557,0.311,2.074,0.933
			c0.517,0.622,0.783,1.402,0.799,2.342v5.265h-1.629v-5.202c0-0.467-0.133-0.867-0.397-1.2c-0.265-0.333-0.684-0.5-1.255-0.5
			c-0.677,0-1.202,0.362-1.574,1.086v5.816h-1.637V78.784z"/>
		<path fill="#393738" d="M49.784,89.542c0.273,0.241,0.769,0.362,1.488,0.362c0.776,0,1.44-0.272,1.991-0.818
			c0.068-0.073,0.207-0.236,0.417-0.488l1.629,0.583c-0.399,0.551-0.688,0.915-0.866,1.094c-0.876,0.876-1.933,1.314-3.171,1.314
			c-1.233,0-2.288-0.438-3.164-1.314c-0.876-0.876-1.314-1.934-1.314-3.172s0.438-2.295,1.314-3.172
			c0.876-0.876,1.931-1.314,3.164-1.314c1.06,0,1.988,0.32,2.786,0.961c0.131,0.109,0.26,0.228,0.386,0.354
			c0.053,0.053,0.202,0.218,0.449,0.496l-0.818,0.826L49.784,89.542z M52.507,84.505c-0.184-0.143-0.595-0.213-1.235-0.213
			c-0.771,0-1.431,0.274-1.979,0.822c-0.548,0.549-0.822,1.211-0.822,1.987c0,0.635,0.071,1.047,0.212,1.235L52.507,84.505z"/>
		<path fill="#393738" d="M74.256,89.652c-1.296,1.238-2.778,1.857-4.447,1.857c-1.779,0-3.295-0.627-4.549-1.881
			s-1.881-2.771-1.881-4.549c0-1.773,0.627-3.29,1.881-4.549c1.254-1.26,2.77-1.889,4.549-1.889c1.663,0,3.24,0.679,4.73,2.038
			l-1.22,1.109c-1.123-0.997-2.293-1.495-3.51-1.495c-1.317,0-2.444,0.467-3.38,1.4c-0.937,0.935-1.405,2.063-1.405,3.385
			c0,1.327,0.468,2.458,1.405,3.392c0.937,0.935,2.063,1.401,3.38,1.401c1.133,0,2.072-0.3,2.817-0.897v-3.801h1.629V89.652z"/>
		<path fill="#393738" d="M78.735,84.372c0.608-0.824,1.356-1.257,2.243-1.299v1.691c-0.593,0.032-1.065,0.224-1.417,0.575
			c-0.53,0.524-0.805,1.148-0.826,1.873v4.163h-1.629v-8.099h1.629V84.372z"/>
		<path fill="#393738" d="M85.45,89.542c0.273,0.241,0.769,0.362,1.488,0.362c0.776,0,1.44-0.272,1.991-0.818
			c0.068-0.073,0.207-0.236,0.417-0.488l1.629,0.583c-0.399,0.551-0.688,0.915-0.866,1.094c-0.876,0.876-1.933,1.314-3.171,1.314
			c-1.233,0-2.288-0.438-3.164-1.314c-0.876-0.876-1.314-1.934-1.314-3.172s0.438-2.295,1.314-3.172
			c0.876-0.876,1.931-1.314,3.164-1.314c1.06,0,1.988,0.32,2.786,0.961c0.131,0.109,0.26,0.228,0.386,0.354
			c0.053,0.053,0.202,0.218,0.449,0.496l-0.818,0.826L85.45,89.542z M88.173,84.505c-0.184-0.143-0.595-0.213-1.235-0.213
			c-0.771,0-1.431,0.274-1.979,0.822c-0.548,0.549-0.822,1.211-0.822,1.987c0,0.635,0.071,1.047,0.212,1.235L88.173,84.505z"/>
		<path fill="#393738" d="M95.786,89.542c0.273,0.241,0.769,0.362,1.488,0.362c0.776,0,1.44-0.272,1.991-0.818
			c0.068-0.073,0.207-0.236,0.417-0.488l1.629,0.583c-0.399,0.551-0.688,0.915-0.866,1.094c-0.876,0.876-1.933,1.314-3.171,1.314
			c-1.233,0-2.288-0.438-3.164-1.314c-0.876-0.876-1.314-1.934-1.314-3.172s0.438-2.295,1.314-3.172
			c0.876-0.876,1.931-1.314,3.164-1.314c1.06,0,1.988,0.32,2.786,0.961c0.131,0.109,0.26,0.228,0.386,0.354
			c0.053,0.053,0.202,0.218,0.449,0.496l-0.818,0.826L95.786,89.542z M98.509,84.505c-0.184-0.143-0.595-0.213-1.235-0.213
			c-0.771,0-1.431,0.274-1.979,0.822c-0.548,0.549-0.822,1.211-0.822,1.987c0,0.635,0.071,1.047,0.212,1.235L98.509,84.505z"/>
		<path fill="#393738" d="M105.239,85.45v5.926h-1.637v-8.099h1.637v0.944c0.341-0.923,1.025-1.385,2.054-1.385
			c0.877,0,1.573,0.311,2.09,0.933s0.783,1.402,0.799,2.342v5.265h-1.629v-5.202c0-0.467-0.171-0.867-0.512-1.2s-0.748-0.5-1.22-0.5
			c-0.467,0-0.871,0.163-1.212,0.488C105.42,85.156,105.297,85.318,105.239,85.45z"/>
		<path fill="#393738" d="M121.494,78.784c0.729,0,1.354,0.258,1.873,0.774c0.52,0.518,0.779,1.141,0.779,1.869
			c0,0.751-0.378,1.215-1.134,1.394c0.546,0.079,1.166,0.467,1.861,1.165c0.695,0.697,1.043,1.663,1.043,2.896
			c0,1.233-0.433,2.299-1.299,3.195c-0.813,0.845-1.629,1.272-2.447,1.283v0.016h-3.227V78.784H121.494z M120.573,80.413v1.991
			h1.063c0.241-0.021,0.448-0.113,0.622-0.275c0.188-0.174,0.283-0.407,0.283-0.701c0-0.293-0.099-0.536-0.295-0.728
			c-0.197-0.191-0.448-0.287-0.752-0.287H120.573z M120.573,84.08v5.659h1.598v-0.023c0.336-0.021,0.753-0.292,1.251-0.812
			c0.552-0.566,0.827-1.24,0.827-2.022c0-0.771-0.274-1.431-0.823-1.979c-0.548-0.549-1.208-0.823-1.979-0.823H120.573z"/>
		<path fill="#393738" d="M129.838,84.372c0.608-0.824,1.356-1.257,2.243-1.299v1.691c-0.593,0.032-1.065,0.224-1.417,0.575
			c-0.529,0.524-0.806,1.148-0.826,1.873v4.163h-1.629v-8.099h1.629V84.372z"/>
		<path fill="#393738" d="M141.085,83.844v-0.567h1.638v8.106h-1.638v-1.016c-0.786,0.813-1.699,1.221-2.738,1.221
			c-1.238,0-2.294-0.438-3.168-1.311c-0.873-0.874-1.311-1.93-1.311-3.168s0.438-2.294,1.311-3.168
			c0.874-0.873,1.93-1.31,3.168-1.31C139.386,82.632,140.299,83.036,141.085,83.844z M141.085,87.708v-1.196
			c-0.094-0.509-0.346-0.971-0.755-1.386c-0.551-0.546-1.212-0.818-1.983-0.818c-0.776,0-1.439,0.272-1.987,0.818
			s-0.822,1.207-0.822,1.983c0,0.771,0.274,1.432,0.822,1.979s1.211,0.822,1.987,0.822c0.771,0,1.433-0.272,1.983-0.818
			C140.739,88.679,140.991,88.217,141.085,87.708z"/>
		<path fill="#393738" d="M147.132,85.45v5.926h-1.637v-8.099h1.637v0.944c0.341-0.923,1.025-1.385,2.054-1.385
			c0.877,0,1.573,0.311,2.09,0.933s0.783,1.402,0.799,2.342v5.265h-1.629v-5.202c0-0.467-0.171-0.867-0.512-1.2s-0.748-0.5-1.22-0.5
			c-0.467,0-0.871,0.163-1.212,0.488C147.313,85.156,147.189,85.318,147.132,85.45z"/>
		<path fill="#393738" d="M161.276,88.597l1.629,0.583c-0.398,0.551-0.688,0.915-0.865,1.094c-0.877,0.876-1.934,1.314-3.172,1.314
			c-1.233,0-2.288-0.438-3.164-1.314s-1.314-1.934-1.314-3.172s0.438-2.295,1.314-3.172c0.876-0.876,1.931-1.314,3.164-1.314
			c1.238,0,2.295,0.438,3.172,1.314c0.178,0.179,0.467,0.538,0.865,1.078l-1.629,0.599c-0.21-0.257-0.352-0.423-0.425-0.496
			c-0.546-0.546-1.207-0.818-1.983-0.818c-0.771,0-1.432,0.274-1.979,0.822c-0.548,0.549-0.822,1.211-0.822,1.987
			c0,0.771,0.274,1.431,0.822,1.979c0.548,0.548,1.208,0.822,1.979,0.822c0.776,0,1.44-0.272,1.991-0.818
			C160.928,89.012,161.066,88.849,161.276,88.597z"/>
		<path fill="#393738" d="M165.196,78.784h1.637v5.367c0.457-0.876,1.117-1.314,1.983-1.314c0.865,0,1.557,0.311,2.073,0.933
			c0.518,0.622,0.783,1.402,0.799,2.342v5.265h-1.629v-5.202c0-0.467-0.132-0.867-0.397-1.2c-0.265-0.333-0.684-0.5-1.255-0.5
			c-0.677,0-1.201,0.362-1.574,1.086v5.816h-1.637V78.784z"/>
	</g>
</g>
</svg>
